<svg width="92" height="32" viewBox="0 0 92 32" fill="none" xmlns="http://www.w3.org/2000/svg">
<rect width="92" height="32" fill="#1A1B1C"/>
<path d="M21.44 20V18.85H17.99V16.98H20.67V15.84H17.99V14.14H21.33V13H16.67V20H21.44ZM23.5908 20V15.07L26.6308 20H28.0508V13H26.7308V17.94L23.7008 13H22.2708V20H23.5908ZM32.0499 20V14.14H34.1599V13H28.6099V14.14H30.7299V20H32.0499ZM39.3752 20V18.85H35.9252V16.98H38.6052V15.84H35.9252V14.14H39.2652V13H34.6052V20H39.3752ZM45.2959 18.13C45.2459 17.49 44.9359 16.97 44.4559 16.67C45.0359 16.37 45.3959 15.88 45.3959 15.16C45.3959 13.89 44.5359 13 43.0759 13H40.2059V20H41.5359V17.37H43.0459C43.5659 17.37 43.9359 17.75 43.9859 18.28L44.1559 20H45.4659L45.2959 18.13ZM43.0159 14.11C43.7959 14.11 44.1159 14.6 44.1159 15.16C44.1159 15.72 43.7959 16.23 43.0159 16.23H41.5359V14.11H43.0159ZM51.7745 20.08C53.4945 20.08 54.7745 19.09 54.9145 17.64H53.5945C53.4745 18.4 52.7345 18.93 51.7745 18.93C50.5545 18.93 49.6345 18.09 49.6345 16.5C49.6345 14.91 50.5545 14.06 51.7745 14.06C52.7145 14.06 53.4545 14.59 53.5545 15.36H54.9345C54.7445 13.91 53.4645 12.92 51.7745 12.92C49.9445 12.92 48.3045 14.12 48.3045 16.5C48.3045 18.88 49.9145 20.08 51.7745 20.08ZM58.9102 20.08C60.9402 20.08 62.4402 18.56 62.4402 16.5C62.4402 14.44 60.9402 12.92 58.9102 12.92C56.8702 12.92 55.3702 14.44 55.3702 16.5C55.3702 18.56 56.8702 20.08 58.9102 20.08ZM58.9002 18.93C57.6302 18.93 56.7002 17.9 56.7002 16.5C56.7002 15.1 57.6302 14.06 58.9002 14.06C60.1802 14.06 61.1102 15.1 61.1102 16.5C61.1102 17.9 60.1802 18.93 58.9002 18.93ZM65.5431 20C67.4831 20 69.1331 18.84 69.1331 16.5C69.1331 14.16 67.4831 13 65.5431 13H63.2731V20H65.5431ZM64.5931 14.14H65.4331C66.6431 14.14 67.7931 14.77 67.7931 16.5C67.7931 18.23 66.6431 18.85 65.4331 18.85H64.5931V14.14ZM74.7377 20V18.85H71.2877V16.98H73.9677V15.84H71.2877V14.14H74.6277V13H69.9677V20H74.7377Z" fill="#FCFCFC"/>
</svg>
