<svg width="27" height="22" viewBox="0 0 27 22" fill="none" xmlns="http://www.w3.org/2000/svg">
<path fill-rule="evenodd" clip-rule="evenodd" d="M9.55146 0.183612C9.07647 0.354284 7.67888 1.53071 7.15232 2.20289C6.99943 2.39826 6.74397 2.44164 5.74796 2.44164C2.88324 2.44164 1.31078 3.25789 0.3908 5.22247L0 6.057V11.9916C0 17.2725 0.0259887 17.9903 0.236388 18.5076C0.814087 19.9289 1.89511 20.9277 3.30197 21.34C4.32673 21.6403 22.6298 21.6403 23.6546 21.34C24.6504 21.0482 25.5443 20.4098 26.0997 19.5941C26.9611 18.3289 26.9565 18.3695 26.9565 11.9234V6.057L26.5549 5.19873C26.0689 4.1601 24.9822 3.12187 24.0239 2.78094C23.6013 2.6306 22.7631 2.52036 21.7035 2.47575L20.0446 2.40603L19.0334 1.4348C18.4772 0.900544 17.8552 0.371338 17.651 0.258784C17.1123 -0.0382211 10.3433 -0.101114 9.55146 0.183612ZM16.8764 1.6273C17.0826 1.70465 17.7446 2.24191 18.3474 2.82105L19.4435 3.87414L21.2647 3.95245C23.2421 4.03745 23.8146 4.20512 24.5267 4.90786C25.3896 5.75945 25.3791 5.66545 25.3365 12.1801L25.2977 18.1077L24.8769 18.6992C24.6453 19.0244 24.1788 19.4441 23.8401 19.6316L23.2241 19.9727H13.4783H3.73244L3.11645 19.6316C2.77777 19.4441 2.31121 19.0244 2.07966 18.6992L1.65886 18.1077L1.62002 12.1801C1.5773 5.64089 1.56306 5.76491 2.45373 4.90554C3.19843 4.18697 3.70673 4.03772 5.69916 3.95245L7.52764 3.87414L8.53305 2.89213C10.0155 1.44408 9.86083 1.48842 13.4347 1.48746C15.2085 1.48705 16.6595 1.54599 16.8764 1.6273ZM11.8339 5.65031C8.47803 6.5802 6.46113 9.98628 7.32595 13.2632C7.6287 14.4104 8.0253 15.0898 8.94238 16.0323C10.881 18.0248 13.8649 18.5382 16.3298 17.3035C17.3173 16.8089 18.6646 15.5152 19.1299 14.6149C20.2143 12.5172 19.9952 9.86595 18.5835 8.00247C17.8957 7.0944 16.7522 6.23204 15.7266 5.84772C14.6848 5.45726 12.8637 5.3649 11.8339 5.65031ZM20.7572 5.96546C20.4896 6.25728 20.4571 6.81882 20.6943 7.05293C20.7962 7.15348 21.2947 7.21664 21.9862 7.21664C22.9014 7.21664 23.155 7.16998 23.3409 6.96711C23.6449 6.63559 23.6295 6.32072 23.2932 5.98879C22.9047 5.60542 21.1025 5.58891 20.7572 5.96546ZM15.4809 7.40287C16.4449 7.83848 17.4128 8.80017 17.8754 9.78205C18.1809 10.4305 18.2415 10.7511 18.2415 11.7188C18.2415 13.1383 17.8474 14.0991 16.869 15.0646C15.9066 16.0144 14.9251 16.4014 13.4783 16.4014C12.0315 16.4014 11.05 16.0144 10.0875 15.0646C9.10909 14.0991 8.71497 13.1383 8.71497 11.7188C8.71497 10.7511 8.77566 10.4305 9.08117 9.78205C9.69453 8.47997 10.968 7.42415 12.3356 7.08363C13.1761 6.87448 14.6402 7.02305 15.4809 7.40287Z" fill="#A0A4AB"/>
</svg>
